<svg width="64" height="64" viewBox="0 0 64 64" fill="none" xmlns="http://www.w3.org/2000/svg">
<g id="Graph">
<g id="Graph_2" filter="url(#filter0_i_301_4747)">
<path id="Graph_3" fill-rule="evenodd" clip-rule="evenodd" d="M58.6365 26.5C56.8042 15.3179 47.2443 6.99913 35.8452 6.66778C34.7043 6.64157 33.6036 7.08735 32.8064 7.89859C32.0362 8.69216 31.6375 9.77094 31.7077 10.8711L32.8765 28.3114C33.0587 30.5125 34.9077 32.2081 37.1309 32.2128H37.4114L54.9432 31.0516C55.9959 30.992 56.9809 30.5167 57.679 29.7316C58.3771 28.9465 58.7302 27.9167 58.6599 26.8715V26.5H58.6365ZM37.1309 28.0328L35.9621 10.8945C45.1336 11.2642 52.8134 17.9183 54.4289 26.8949L37.1309 28.0328ZM44.7981 39.969C45.1266 38.8563 46.2885 38.207 47.4162 38.5059C47.9694 38.6371 48.4455 38.9851 48.7362 39.4707C49.0269 39.9563 49.1072 40.5382 48.959 41.0836C47.3714 46.8401 43.4992 51.7094 38.2295 54.576C31.7635 58.1366 23.9351 58.2554 17.3625 54.8927C10.79 51.53 6.34103 45.1297 5.50357 37.8325C5.36772 36.9802 5.31294 36.1172 5.33994 35.2547C5.32865 24.798 12.7081 15.7698 23.012 13.6344C24.1739 13.4035 25.3042 14.1521 25.5365 15.3064C25.7689 16.4607 25.0154 17.5836 23.8535 17.8145C15.5371 19.5719 9.59748 26.8776 9.61769 35.3244C9.59833 35.9845 9.63744 36.645 9.73457 37.2983C10.7603 45.7318 17.638 52.2721 26.1637 52.9215C34.6895 53.5708 42.4904 48.1485 44.7981 39.969Z" fill="url(#paint0_linear_301_4747)"/>
</g>
</g>
<defs>
<filter id="filter0_i_301_4747" x="5.33325" y="6.66669" width="53.3354" height="50.6664" filterUnits="userSpaceOnUse" color-interpolation-filters="sRGB">
<feFlood flood-opacity="0" result="BackgroundImageFix"/>
<feBlend mode="normal" in="SourceGraphic" in2="BackgroundImageFix" result="shape"/>
<feColorMatrix in="SourceAlpha" type="matrix" values="0 0 0 0 0 0 0 0 0 0 0 0 0 0 0 0 0 0 127 0" result="hardAlpha"/>
<feOffset dx="-1.62" dy="1.62"/>
<feComposite in2="hardAlpha" operator="arithmetic" k2="-1" k3="1"/>
<feColorMatrix type="matrix" values="0 0 0 0 0.68 0 0 0 0 0.656 0 0 0 0 0.52 0 0 0 1 0"/>
<feBlend mode="normal" in2="shape" result="effect1_innerShadow_301_4747"/>
</filter>
<linearGradient id="paint0_linear_301_4747" x1="5.33325" y1="57.3332" x2="68.0474" y2="24.679" gradientUnits="userSpaceOnUse">
<stop stop-color="#ADA785"/>
<stop offset="1" stop-color="#D6D3C2"/>
</linearGradient>
</defs>
</svg>
