<svg width="64" height="64" viewBox="0 0 64 64" fill="none" xmlns="http://www.w3.org/2000/svg">
<g id="Password">
<g id="Password_2" filter="url(#filter0_i_301_4786)">
<path id="Password_3" fill-rule="evenodd" clip-rule="evenodd" d="M20.4411 5.33313H43.5585C52.5958 5.33313 58.6678 11.6745 58.6678 21.1091V42.8905C58.6678 52.3251 52.5931 58.6665 43.5558 58.6665H29.2091C28.1051 58.6665 27.2091 57.7705 27.2091 56.6665C27.2091 55.5625 28.1051 54.6665 29.2091 54.6665H43.5558C50.3051 54.6665 54.6678 50.0451 54.6678 42.8905V21.1091C54.6678 13.9545 50.3051 9.33313 43.5585 9.33313H20.4411C13.6945 9.33313 9.33447 13.9545 9.33447 21.1091V42.8905C9.33447 50.0451 13.6945 54.6665 20.4411 54.6665C21.5451 54.6665 22.4411 55.5625 22.4411 56.6665C22.4411 57.7705 21.5451 58.6665 20.4411 58.6665C11.4038 58.6665 5.33447 52.3251 5.33447 42.8905V21.1091C5.33447 11.6745 11.4038 5.33313 20.4411 5.33313ZM17.2465 29.1531C17.6998 28.1451 18.8785 27.6945 19.8918 28.1505C20.8998 28.6011 21.3478 29.7851 20.8945 30.7931C20.7238 31.1745 20.6385 31.5798 20.6385 31.9985C20.6385 33.6198 21.9558 34.9371 23.5745 34.9371C25.1958 34.9371 26.5132 33.6198 26.5132 31.9985C26.5132 30.3798 25.1958 29.0625 23.5745 29.0625C22.4705 29.0625 21.5745 28.1665 21.5745 27.0625C21.5745 25.9585 22.4705 25.0625 23.5745 25.0625C26.7025 25.0625 29.3185 27.1531 30.1825 29.9985H45.3612C46.4652 29.9985 47.3612 30.8945 47.3612 31.9985V36.9371C47.3612 38.0411 46.4652 38.9371 45.3612 38.9371C44.2572 38.9371 43.3612 38.0411 43.3612 36.9371V33.9985H39.8172V36.9371C39.8172 38.0411 38.9212 38.9371 37.8172 38.9371C36.7132 38.9371 35.8172 38.0411 35.8172 36.9371V33.9985H30.1825C29.3185 36.8465 26.7025 38.9371 23.5745 38.9371C19.7505 38.9371 16.6385 35.8251 16.6385 31.9985C16.6385 31.0091 16.8412 30.0545 17.2465 29.1531Z" fill="url(#paint0_linear_301_4786)"/>
</g>
</g>
<defs>
<filter id="filter0_i_301_4786" x="5.33447" y="5.33313" width="53.3333" height="53.3333" filterUnits="userSpaceOnUse" color-interpolation-filters="sRGB">
<feFlood flood-opacity="0" result="BackgroundImageFix"/>
<feBlend mode="normal" in="SourceGraphic" in2="BackgroundImageFix" result="shape"/>
<feColorMatrix in="SourceAlpha" type="matrix" values="0 0 0 0 0 0 0 0 0 0 0 0 0 0 0 0 0 0 127 0" result="hardAlpha"/>
<feOffset dx="-1.62" dy="1.62"/>
<feComposite in2="hardAlpha" operator="arithmetic" k2="-1" k3="1"/>
<feColorMatrix type="matrix" values="0 0 0 0 0.68 0 0 0 0 0.656 0 0 0 0 0.52 0 0 0 1 0"/>
<feBlend mode="normal" in2="shape" result="effect1_innerShadow_301_4786"/>
</filter>
<linearGradient id="paint0_linear_301_4786" x1="5.33447" y1="58.6665" x2="69.379" y2="26.9883" gradientUnits="userSpaceOnUse">
<stop stop-color="#ADA785"/>
<stop offset="1" stop-color="#D6D3C2"/>
</linearGradient>
</defs>
</svg>
