<svg width="64" height="64" viewBox="0 0 64 64" fill="none" xmlns="http://www.w3.org/2000/svg">
<g id="Chart">
<g id="Chart_2" filter="url(#filter0_i_301_4763)">
<path id="Chart_3" fill-rule="evenodd" clip-rule="evenodd" d="M58.6666 28.2005C58.6666 29.3274 57.753 30.241 56.6261 30.241H56.6027C56.0595 30.2411 55.5392 30.0222 55.1596 29.6337C54.78 29.2452 54.573 28.7201 54.5857 28.1771V22.0088C54.5857 13.8939 50.106 9.41423 41.9911 9.41423H22.0087C13.8703 9.41423 9.41417 13.8939 9.41417 22.0088V42.0146C9.41417 50.1296 13.8938 54.5857 22.0087 54.5857H41.9911C50.1295 54.5857 54.5857 50.1061 54.5857 42.0146C54.5857 40.8877 55.4992 39.9742 56.6261 39.9742C57.753 39.9742 58.6666 40.8877 58.6666 42.0146C58.6666 52.2873 52.2872 58.6666 42.0146 58.6666H22.0087C11.7126 58.6666 5.33325 52.2873 5.33325 42.0146V22.0088C5.33325 11.7127 11.7126 5.33331 22.0087 5.33331H41.9911C52.2403 5.33331 58.6666 11.7127 58.6666 22.0088V28.2005ZM18.561 44.5008V27.5908V27.4267C18.5793 26.8874 18.8128 26.3779 19.2095 26.012C19.6062 25.6462 20.1329 25.4546 20.6719 25.48C21.2131 25.4984 21.7249 25.7311 22.0944 26.1271C22.464 26.523 22.6609 27.0496 22.642 27.5908V44.6415C22.6031 45.7685 21.6581 46.6505 20.5311 46.6116C19.4042 46.5728 18.5222 45.6277 18.561 44.5008ZM30.0533 19.5224V44.5239C30.0533 45.6508 30.9668 46.5643 32.0938 46.5643C33.2207 46.5643 34.1342 45.6508 34.1342 44.5239V19.5224C34.1342 18.3955 33.2207 17.4819 32.0938 17.4819C30.9668 17.4819 30.0533 18.3955 30.0533 19.5224ZM41.358 44.5005V36.5263C41.358 35.3993 42.2715 34.4858 43.3984 34.4858C44.5253 34.4858 45.4389 35.3993 45.4389 36.5263V44.5005C45.4389 45.6274 44.5253 46.5409 43.3984 46.5409C42.2715 46.5409 41.358 45.6274 41.358 44.5005Z" fill="url(#paint0_linear_301_4763)"/>
</g>
</g>
<defs>
<filter id="filter0_i_301_4763" x="5.33325" y="5.33331" width="53.3333" height="53.3333" filterUnits="userSpaceOnUse" color-interpolation-filters="sRGB">
<feFlood flood-opacity="0" result="BackgroundImageFix"/>
<feBlend mode="normal" in="SourceGraphic" in2="BackgroundImageFix" result="shape"/>
<feColorMatrix in="SourceAlpha" type="matrix" values="0 0 0 0 0 0 0 0 0 0 0 0 0 0 0 0 0 0 127 0" result="hardAlpha"/>
<feOffset dx="-1.62" dy="1.62"/>
<feComposite in2="hardAlpha" operator="arithmetic" k2="-1" k3="1"/>
<feColorMatrix type="matrix" values="0 0 0 0 0.68 0 0 0 0 0.656 0 0 0 0 0.52 0 0 0 1 0"/>
<feBlend mode="normal" in2="shape" result="effect1_innerShadow_301_4763"/>
</filter>
<linearGradient id="paint0_linear_301_4763" x1="5.33325" y1="58.6667" x2="69.3778" y2="26.9885" gradientUnits="userSpaceOnUse">
<stop stop-color="#ADA785"/>
<stop offset="1" stop-color="#D6D3C2"/>
</linearGradient>
</defs>
</svg>
