<svg width="64" height="64" viewBox="0 0 64 64" fill="none" xmlns="http://www.w3.org/2000/svg">
<g id="Document">
<g id="Document_2" filter="url(#filter0_i_301_4798)">
<path id="Document_3" fill-rule="evenodd" clip-rule="evenodd" d="M21.701 5.33331H42.2758C50.8447 5.33331 55.9768 10.5371 56 19.2259V44.7741C56 53.4628 50.8911 58.6666 42.299 58.6666H34.6821C33.7053 58.5574 32.966 57.7205 32.966 56.724C32.966 55.7276 33.7053 54.8907 34.6821 54.7814H42.2758C48.8244 54.7814 52.1219 51.4143 52.1219 44.7741V19.2259C52.1219 12.5857 48.8244 9.21852 42.2758 9.21852H21.701C15.1524 9.21852 11.8316 12.5857 11.8316 19.2259V44.7741C11.8316 51.4143 15.1524 54.7814 21.701 54.7814C22.6778 54.8907 23.4172 55.7276 23.4172 56.724C23.4172 57.7205 22.6778 58.5574 21.701 58.6666C13.1321 58.6666 8 53.4628 8 44.7741V19.2259C8 10.5136 13.1321 5.33331 21.701 5.33331ZM22.3744 22.6638H29.6894C30.6662 22.5546 31.4056 21.7177 31.4056 20.7212C31.4056 19.7247 30.6662 18.8878 29.6894 18.7786H22.3744C21.3976 18.8878 20.6582 19.7247 20.6582 20.7212C20.6582 21.7177 21.3976 22.5546 22.3744 22.6638ZM41.5789 33.9426H22.3743H22.3511C21.3742 33.8334 20.6349 32.9964 20.6349 32C20.6349 31.0035 21.3742 30.1666 22.3511 30.0574H41.5789C42.3137 29.9752 43.0302 30.3265 43.423 30.9615C43.8158 31.5965 43.8158 32.4034 43.423 33.0385C43.0302 33.6735 42.3137 34.0247 41.5789 33.9426ZM41.5793 45.2212H22.3746H22.3514C21.2997 45.2212 20.4472 44.3567 20.4472 43.2904C20.4472 42.224 21.2997 41.3595 22.3514 41.3595H41.5793C42.6309 41.3595 43.4835 42.224 43.4835 43.2904C43.4835 44.3567 42.6309 45.2212 41.5793 45.2212Z" fill="url(#paint0_linear_301_4798)"/>
</g>
</g>
<defs>
<filter id="filter0_i_301_4798" x="8" y="5.33331" width="48" height="53.3333" filterUnits="userSpaceOnUse" color-interpolation-filters="sRGB">
<feFlood flood-opacity="0" result="BackgroundImageFix"/>
<feBlend mode="normal" in="SourceGraphic" in2="BackgroundImageFix" result="shape"/>
<feColorMatrix in="SourceAlpha" type="matrix" values="0 0 0 0 0 0 0 0 0 0 0 0 0 0 0 0 0 0 127 0" result="hardAlpha"/>
<feOffset dx="-1.62" dy="1.62"/>
<feComposite in2="hardAlpha" operator="arithmetic" k2="-1" k3="1"/>
<feColorMatrix type="matrix" values="0 0 0 0 0.68 0 0 0 0 0.656 0 0 0 0 0.52 0 0 0 1 0"/>
<feBlend mode="normal" in2="shape" result="effect1_innerShadow_301_4798"/>
</filter>
<linearGradient id="paint0_linear_301_4798" x1="8" y1="58.6667" x2="67.8763" y2="32.0119" gradientUnits="userSpaceOnUse">
<stop stop-color="#ADA785"/>
<stop offset="1" stop-color="#D6D3C2"/>
</linearGradient>
</defs>
</svg>
