<svg width="64" height="64" viewBox="0 0 64 64" fill="none" xmlns="http://www.w3.org/2000/svg">
<g id="Shield Done">
<g id="Shield Done_2" filter="url(#filter0_i_301_4781)">
<path id="Shield Done_3" fill-rule="evenodd" clip-rule="evenodd" d="M33.6409 5.60131L51.3544 11.6465C53.3357 12.3238 54.6666 14.1478 54.6666 16.1904V33.8993C54.6666 39.2671 52.6716 44.4643 49.0521 48.5202C47.3946 50.3789 45.2679 51.9762 42.5512 53.4054L32.9768 58.432C32.6777 58.5867 32.3484 58.6666 32.0164 58.6666C31.6871 58.6666 31.3578 58.5867 31.0587 58.432L21.4651 53.4028C18.7429 51.9708 16.6135 50.3735 14.9588 48.5229C11.3337 44.4617 9.33325 39.2618 9.33325 33.8886C9.33325 32.806 10.2388 31.926 11.3529 31.926C12.4671 31.926 13.3726 32.806 13.3726 33.8886C13.3726 38.3205 15.0191 42.6031 18.0075 45.9523C19.3384 47.4429 21.0974 48.7496 23.3833 49.9495L32.0164 54.4748L40.6303 49.9522C42.9107 48.7549 44.6697 47.4483 46.0033 45.9523C48.9862 42.6057 50.6299 38.3285 50.6299 33.8993V16.1904C50.6299 15.8117 50.383 15.4757 50.018 15.3504L32.3045 9.30521C32.1097 9.23855 31.8929 9.23855 31.6953 9.30521L13.9846 15.3504C13.6196 15.4757 13.3726 15.8117 13.3726 16.1904V21.2569C13.3726 22.3422 12.4671 23.2222 11.3529 23.2222C10.2388 23.2222 9.33325 22.3422 9.33325 21.2569V16.1904C9.33325 14.1478 10.6669 12.3238 12.6482 11.6465L30.3589 5.60131C31.4182 5.24398 32.5844 5.24398 33.6409 5.60131ZM30.0964 38.18C29.5586 38.18 29.0482 37.972 28.6695 37.604L23.5764 32.6548C22.7888 31.8868 22.7888 30.6495 23.5764 29.8816C24.3667 29.1136 25.6427 29.1136 26.4303 29.8816L30.0964 33.4415L39.1576 24.639C39.9452 23.8737 41.224 23.8737 42.0115 24.639C42.7991 25.4043 42.7991 26.647 42.0115 27.4123L31.5234 37.604C31.1447 37.972 30.6316 38.18 30.0964 38.18Z" fill="url(#paint0_linear_301_4781)"/>
</g>
</g>
<defs>
<filter id="filter0_i_301_4781" x="9.33325" y="5.33331" width="45.3333" height="53.3333" filterUnits="userSpaceOnUse" color-interpolation-filters="sRGB">
<feFlood flood-opacity="0" result="BackgroundImageFix"/>
<feBlend mode="normal" in="SourceGraphic" in2="BackgroundImageFix" result="shape"/>
<feColorMatrix in="SourceAlpha" type="matrix" values="0 0 0 0 0 0 0 0 0 0 0 0 0 0 0 0 0 0 127 0" result="hardAlpha"/>
<feOffset dx="-1.62" dy="1.62"/>
<feComposite in2="hardAlpha" operator="arithmetic" k2="-1" k3="1"/>
<feColorMatrix type="matrix" values="0 0 0 0 0.68 0 0 0 0 0.656 0 0 0 0 0.52 0 0 0 1 0"/>
<feBlend mode="normal" in2="shape" result="effect1_innerShadow_301_4781"/>
</filter>
<linearGradient id="paint0_linear_301_4781" x1="9.33325" y1="58.6667" x2="66.9119" y2="34.4587" gradientUnits="userSpaceOnUse">
<stop stop-color="#ADA785"/>
<stop offset="1" stop-color="#D6D3C2"/>
</linearGradient>
</defs>
</svg>
