<svg width="101" height="32" viewBox="0 0 101 32" fill="none" xmlns="http://www.w3.org/2000/svg">
<path d="M0.52 21.008L1.192 20.848C1.98133 20.6133 2.54667 20.336 2.888 20.016C3.22933 19.6747 3.54933 19.056 3.848 18.16L8.392 5.04C8.60533 4.35733 8.712 3.888 8.712 3.632C8.712 3.26933 8.60533 2.992 8.392 2.8C8.2 2.58667 7.88 2.43733 7.432 2.352L6.76 2.192L7.112 1.2H12.68L18.536 17.968C18.856 18.8853 19.1867 19.568 19.528 20.016C19.8907 20.464 20.4347 20.9653 21.16 21.52L20.776 22H14.216L13.896 21.008L14.6 20.848C15.048 20.7413 15.368 20.592 15.56 20.4C15.7733 20.1867 15.88 19.8987 15.88 19.536C15.88 19.3227 15.8267 19.0773 15.72 18.8C15.6347 18.5013 15.5707 18.288 15.528 18.16L14.152 14.096H7.464L6.76 16.208C6.33333 17.5307 6.12 18.544 6.12 19.248C6.12 19.952 6.25867 20.5387 6.536 21.008L6.76 21.52L6.216 22H0.904L0.52 21.008ZM8.104 12.272H13.576L10.792 4.144L8.104 12.272ZM22.7175 21.52L23.1015 21.008C23.5922 20.368 23.9335 19.696 24.1255 18.992C24.3388 18.288 24.4455 17.3493 24.4455 16.176V6.992C24.4455 5.86133 24.3388 4.944 24.1255 4.24C23.9335 3.51467 23.5922 2.832 23.1015 2.192L22.7175 1.648L23.1015 1.2H31.6775C32.5522 1.2 33.2455 1.15733 33.7575 1.072C34.2908 0.965332 34.7175 0.805332 35.0375 0.591999L35.5175 0.207998L35.9655 0.591999V5.744L35.0375 6.096L34.8135 5.392C34.6215 4.66667 34.4188 4.13333 34.2055 3.792C33.9922 3.42933 33.6935 3.17333 33.3095 3.024C32.9255 2.87467 32.3815 2.8 31.6775 2.8H29.1175C28.3708 2.8 27.8802 2.94933 27.6455 3.248C27.4108 3.54667 27.2935 4.144 27.2935 5.04V10.896H30.7175C31.1868 10.896 31.5922 10.8 31.9335 10.608C32.2962 10.416 32.6375 10.064 32.9575 9.552L33.2135 9.232L33.8215 9.552V14.544L32.7975 14.864L32.6695 14.224C32.4775 13.5627 32.1575 13.1147 31.7095 12.88C31.2615 12.6453 30.5148 12.528 29.4695 12.528H27.2935V18.16C27.2935 19.056 27.4108 19.6747 27.6455 20.016C27.8802 20.336 28.3708 20.6133 29.1175 20.848L29.8215 21.008L29.4695 22H23.1015L22.7175 21.52ZM52.3533 22.416C52.2039 22.2667 52.0333 22.16 51.8413 22.096C51.6706 22.032 51.4359 22 51.1373 22H38.9133L38.5613 21.072L39.2013 20.912C39.9053 20.6987 40.3746 20.432 40.6093 20.112C40.8439 19.7707 40.9613 19.184 40.9613 18.352V6.992C40.9613 5.84 40.8653 4.912 40.6733 4.208C40.4813 3.504 40.1506 2.832 39.6813 2.192L39.2973 1.648L39.6813 1.2H48.5453C50.2306 1.2 51.3186 0.997332 51.8093 0.591999L52.3853 0.207998L52.8013 0.591999V5.744L51.8093 6.096L51.6493 5.392C51.3933 4.34667 51.0626 3.65333 50.6573 3.312C50.2519 2.97067 49.5479 2.8 48.5453 2.8H45.6973C44.9506 2.8 44.4493 2.94933 44.1933 3.248C43.9586 3.54667 43.8413 4.144 43.8413 5.04V10.608H47.5213C48.0119 10.608 48.4279 10.512 48.7693 10.32C49.1106 10.128 49.4626 9.78667 49.8253 9.296L50.0493 8.976L50.6253 9.296V14.256L49.6653 14.608L49.4733 13.872C49.2599 13.2107 48.9399 12.7733 48.5133 12.56C48.0866 12.3467 47.3399 12.24 46.2733 12.24H43.8413V18.16C43.8413 18.7787 43.8839 19.248 43.9693 19.568C44.0759 19.8667 44.2573 20.0693 44.5133 20.176C44.7693 20.2827 45.1639 20.336 45.6973 20.336H48.8013C49.5053 20.336 50.0493 20.272 50.4333 20.144C50.8173 19.9947 51.1159 19.7387 51.3293 19.376C51.5639 19.0133 51.7773 18.48 51.9693 17.776L52.1613 17.136L53.1213 17.424V22.416L52.5773 22.704L52.3533 22.416ZM56.0583 21.008L56.7623 20.848C57.3596 20.656 57.8076 20.4 58.1063 20.08C58.4263 19.7387 58.5863 19.2053 58.5863 18.48V3.824C58.5863 3.568 58.5329 3.39733 58.4263 3.312C58.3196 3.20533 58.1596 3.152 57.9463 3.152H56.2823L55.9303 2.064C56.8476 1.744 58.0423 1.456 59.5143 1.2C60.9863 0.922665 62.4049 0.783998 63.7703 0.783998C67.8023 0.783998 70.7036 1.78667 72.4743 3.792C74.2449 5.79733 75.1303 8.41067 75.1303 11.632C75.1303 13.5947 74.7676 15.3653 74.0423 16.944C73.3169 18.5013 72.2289 19.7387 70.7783 20.656C69.3489 21.552 67.5889 22 65.4983 22H56.4103L56.0583 21.008ZM64.6023 20.528C69.5303 20.528 71.9943 17.5413 71.9943 11.568C71.9943 9.92533 71.7063 8.41067 71.1303 7.024C70.5756 5.63733 69.7223 4.51733 68.5703 3.664C67.4183 2.81067 65.9996 2.384 64.3142 2.384C62.4156 2.384 61.4663 2.84267 61.4663 3.76V16.912C61.4663 18.2987 61.7543 19.248 62.3303 19.76C62.9063 20.272 63.6636 20.528 64.6023 20.528Z" fill="#5F5959"/>
<path d="M61.041 27.933V29.583C60.825 29.739 60.594 29.856 60.348 29.934C60.104 30.01 59.836 30.048 59.544 30.048C59.198 30.048 58.886 29.995 58.608 29.889C58.33 29.781 58.092 29.631 57.894 29.439C57.698 29.245 57.547 29.013 57.441 28.743C57.335 28.473 57.282 28.176 57.282 27.852C57.282 27.524 57.333 27.225 57.435 26.955C57.539 26.685 57.686 26.454 57.876 26.262C58.066 26.068 58.297 25.918 58.569 25.812C58.841 25.706 59.145 25.653 59.481 25.653C59.651 25.653 59.809 25.666 59.955 25.692C60.101 25.716 60.236 25.752 60.36 25.8C60.484 25.846 60.599 25.903 60.705 25.971C60.811 26.037 60.91 26.112 61.002 26.196L60.837 26.46C60.811 26.5 60.777 26.526 60.735 26.538C60.695 26.548 60.65 26.538 60.6 26.508C60.552 26.48 60.497 26.446 60.435 26.406C60.373 26.366 60.297 26.328 60.207 26.292C60.119 26.254 60.014 26.222 59.892 26.196C59.772 26.17 59.629 26.157 59.463 26.157C59.221 26.157 59.002 26.197 58.806 26.277C58.61 26.355 58.443 26.468 58.305 26.616C58.167 26.762 58.061 26.94 57.987 27.15C57.913 27.358 57.876 27.592 57.876 27.852C57.876 28.122 57.914 28.364 57.99 28.578C58.068 28.79 58.178 28.971 58.32 29.121C58.464 29.269 58.638 29.382 58.842 29.46C59.046 29.538 59.275 29.577 59.529 29.577C59.729 29.577 59.906 29.555 60.06 29.511C60.216 29.465 60.368 29.402 60.516 29.322V28.377H59.847C59.809 28.377 59.778 28.366 59.754 28.344C59.732 28.322 59.721 28.295 59.721 28.263V27.933H61.041ZM62.2659 27.57C62.3619 27.362 62.4799 27.2 62.6199 27.084C62.7599 26.966 62.9309 26.907 63.1329 26.907C63.1969 26.907 63.2579 26.914 63.3159 26.928C63.3759 26.942 63.4289 26.964 63.4749 26.994L63.4359 27.393C63.4239 27.443 63.3939 27.468 63.3459 27.468C63.3179 27.468 63.2769 27.462 63.2229 27.45C63.1689 27.438 63.1079 27.432 63.0399 27.432C62.9439 27.432 62.8579 27.446 62.7819 27.474C62.7079 27.502 62.6409 27.544 62.5809 27.6C62.5229 27.654 62.4699 27.722 62.4219 27.804C62.3759 27.884 62.3339 27.976 62.2959 28.08V30H61.7589V26.961H62.0649C62.1229 26.961 62.1629 26.972 62.1849 26.994C62.2069 27.016 62.2219 27.054 62.2299 27.108L62.2659 27.57ZM65.1024 26.913C65.3244 26.913 65.5244 26.95 65.7024 27.024C65.8804 27.098 66.0324 27.203 66.1584 27.339C66.2844 27.475 66.3804 27.64 66.4464 27.834C66.5144 28.026 66.5484 28.241 66.5484 28.479C66.5484 28.719 66.5144 28.935 66.4464 29.127C66.3804 29.319 66.2844 29.483 66.1584 29.619C66.0324 29.755 65.8804 29.86 65.7024 29.934C65.5244 30.006 65.3244 30.042 65.1024 30.042C64.8784 30.042 64.6764 30.006 64.4964 29.934C64.3184 29.86 64.1664 29.755 64.0404 29.619C63.9144 29.483 63.8174 29.319 63.7494 29.127C63.6834 28.935 63.6504 28.719 63.6504 28.479C63.6504 28.241 63.6834 28.026 63.7494 27.834C63.8174 27.64 63.9144 27.475 64.0404 27.339C64.1664 27.203 64.3184 27.098 64.4964 27.024C64.6764 26.95 64.8784 26.913 65.1024 26.913ZM65.1024 29.625C65.4024 29.625 65.6264 29.525 65.7744 29.325C65.9224 29.123 65.9964 28.842 65.9964 28.482C65.9964 28.12 65.9224 27.838 65.7744 27.636C65.6264 27.434 65.4024 27.333 65.1024 27.333C64.9504 27.333 64.8174 27.359 64.7034 27.411C64.5914 27.463 64.4974 27.538 64.4214 27.636C64.3474 27.734 64.2914 27.855 64.2534 27.999C64.2174 28.141 64.1994 28.302 64.1994 28.482C64.1994 28.842 64.2734 29.123 64.4214 29.325C64.5714 29.525 64.7984 29.625 65.1024 29.625ZM69.7247 26.961V30H69.4067C69.3307 30 69.2827 29.963 69.2627 29.889L69.2207 29.562C69.0887 29.708 68.9407 29.826 68.7767 29.916C68.6127 30.004 68.4247 30.048 68.2127 30.048C68.0467 30.048 67.8997 30.021 67.7717 29.967C67.6457 29.911 67.5397 29.833 67.4537 29.733C67.3677 29.633 67.3027 29.512 67.2587 29.37C67.2167 29.228 67.1957 29.071 67.1957 28.899V26.961H67.7297V28.899C67.7297 29.129 67.7817 29.307 67.8857 29.433C67.9917 29.559 68.1527 29.622 68.3687 29.622C68.5267 29.622 68.6737 29.585 68.8097 29.511C68.9477 29.435 69.0747 29.331 69.1907 29.199V26.961H69.7247ZM71.1084 29.268C71.2064 29.4 71.3134 29.493 71.4294 29.547C71.5454 29.601 71.6754 29.628 71.8194 29.628C72.1034 29.628 72.3214 29.527 72.4734 29.325C72.6254 29.123 72.7014 28.835 72.7014 28.461C72.7014 28.263 72.6834 28.093 72.6474 27.951C72.6134 27.809 72.5634 27.693 72.4974 27.603C72.4314 27.511 72.3504 27.444 72.2544 27.402C72.1584 27.36 72.0494 27.339 71.9274 27.339C71.7534 27.339 71.6004 27.379 71.4684 27.459C71.3384 27.539 71.2184 27.652 71.1084 27.798V29.268ZM71.0814 27.432C71.2094 27.274 71.3574 27.147 71.5254 27.051C71.6934 26.955 71.8854 26.907 72.1014 26.907C72.2774 26.907 72.4364 26.941 72.5784 27.009C72.7204 27.075 72.8414 27.174 72.9414 27.306C73.0414 27.436 73.1184 27.598 73.1724 27.792C73.2264 27.986 73.2534 28.209 73.2534 28.461C73.2534 28.685 73.2234 28.894 73.1634 29.088C73.1034 29.28 73.0164 29.447 72.9024 29.589C72.7904 29.729 72.6524 29.84 72.4884 29.922C72.3264 30.002 72.1434 30.042 71.9394 30.042C71.7534 30.042 71.5934 30.011 71.4594 29.949C71.3274 29.885 71.2104 29.797 71.1084 29.685V31.029H70.5714V26.961H70.8924C70.9684 26.961 71.0154 26.998 71.0334 27.072L71.0814 27.432Z" fill="#5F5959"/>
<line y1="28" x2="24" y2="28" stroke="#5F5959" stroke-width="3"/>
</svg>
