<svg width="127" height="40" viewBox="0 0 127 40" fill="none" xmlns="http://www.w3.org/2000/svg">
<path d="M0.114355 26.76L0.954355 26.56C1.94102 26.2667 2.64769 25.92 3.07436 25.52C3.50102 25.0933 3.90102 24.32 4.27436 23.2L9.95436 6.8C10.221 5.94667 10.3544 5.36 10.3544 5.04C10.3544 4.58667 10.221 4.24 9.95436 4C9.71436 3.73333 9.31436 3.54667 8.75436 3.44L7.91436 3.24L8.35436 2H15.3144L22.6344 22.96C23.0344 24.1067 23.4477 24.96 23.8744 25.52C24.3277 26.08 25.0077 26.7067 25.9144 27.4L25.4344 28H17.2344L16.8344 26.76L17.7144 26.56C18.2744 26.4267 18.6744 26.24 18.9144 26C19.181 25.7333 19.3144 25.3733 19.3144 24.92C19.3144 24.6533 19.2477 24.3467 19.1144 24C19.0077 23.6267 18.9277 23.36 18.8744 23.2L17.1544 18.12H8.79436L7.91436 20.76C7.38102 22.4133 7.11436 23.68 7.11436 24.56C7.11436 25.44 7.28769 26.1733 7.63436 26.76L7.91436 27.4L7.23436 28H0.594355L0.114355 26.76ZM9.59436 15.84H16.4344L12.9544 5.68L9.59436 15.84ZM27.8612 27.4L28.3412 26.76C28.9546 25.96 29.3812 25.12 29.6212 24.24C29.8879 23.36 30.0212 22.1867 30.0212 20.72V9.24C30.0212 7.82667 29.8879 6.68 29.6212 5.8C29.3812 4.89333 28.9546 4.04 28.3412 3.24L27.8612 2.56L28.3412 2H39.0612C40.1546 2 41.0212 1.94667 41.6612 1.84C42.3279 1.70667 42.8612 1.50667 43.2612 1.24L43.8612 0.759998L44.4212 1.24V7.68L43.2612 8.12L42.9812 7.24C42.7412 6.33333 42.4879 5.66667 42.2212 5.24C41.9546 4.78667 41.5812 4.46667 41.1012 4.28C40.6212 4.09333 39.9412 4 39.0612 4H35.8612C34.9279 4 34.3146 4.18667 34.0212 4.56C33.7279 4.93333 33.5812 5.68 33.5812 6.8V14.12H37.8612C38.4479 14.12 38.9546 14 39.3812 13.76C39.8346 13.52 40.2612 13.08 40.6612 12.44L40.9812 12.04L41.7412 12.44V18.68L40.4612 19.08L40.3012 18.28C40.0612 17.4533 39.6612 16.8933 39.1012 16.6C38.5412 16.3067 37.6079 16.16 36.3012 16.16H33.5812V23.2C33.5812 24.32 33.7279 25.0933 34.0212 25.52C34.3146 25.92 34.9279 26.2667 35.8612 26.56L36.7412 26.76L36.3012 28H28.3412L27.8612 27.4ZM64.9059 28.52C64.7193 28.3333 64.5059 28.2 64.2659 28.12C64.0526 28.04 63.7593 28 63.3859 28H48.1059L47.6659 26.84L48.4659 26.64C49.3459 26.3733 49.9326 26.04 50.2259 25.64C50.5193 25.2133 50.6659 24.48 50.6659 23.44V9.24C50.6659 7.8 50.5459 6.64 50.3059 5.76C50.0659 4.88 49.6526 4.04 49.0659 3.24L48.5859 2.56L49.0659 2H60.1459C62.2526 2 63.6126 1.74667 64.2259 1.24L64.9459 0.759998L65.4659 1.24V7.68L64.2259 8.12L64.0259 7.24C63.7059 5.93333 63.2926 5.06667 62.7859 4.64C62.2793 4.21333 61.3993 4 60.1459 4H56.5859C55.6526 4 55.0259 4.18667 54.7059 4.56C54.4126 4.93333 54.2659 5.68 54.2659 6.8V13.76H58.8659C59.4793 13.76 59.9993 13.64 60.4259 13.4C60.8526 13.16 61.2926 12.7333 61.7459 12.12L62.0259 11.72L62.7459 12.12V18.32L61.5459 18.76L61.3059 17.84C61.0393 17.0133 60.6393 16.4667 60.1059 16.2C59.5726 15.9333 58.6393 15.8 57.3059 15.8H54.2659V23.2C54.2659 23.9733 54.3193 24.56 54.4259 24.96C54.5593 25.3333 54.7859 25.5867 55.1059 25.72C55.4259 25.8533 55.9193 25.92 56.5859 25.92H60.4659C61.3459 25.92 62.0259 25.84 62.5059 25.68C62.9859 25.4933 63.3593 25.1733 63.6259 24.72C63.9193 24.2667 64.1859 23.6 64.4259 22.72L64.6659 21.92L65.8659 22.28V28.52L65.1859 28.88L64.9059 28.52ZM69.5372 26.76L70.4172 26.56C71.1638 26.32 71.7238 26 72.0972 25.6C72.4972 25.1733 72.6972 24.5067 72.6972 23.6V5.28C72.6972 4.96 72.6305 4.74666 72.4972 4.64C72.3638 4.50666 72.1638 4.44 71.8972 4.44H69.8172L69.3772 3.08C70.5238 2.68 72.0172 2.32 73.8572 2C75.6972 1.65333 77.4705 1.48 79.1772 1.48C84.2172 1.48 87.8438 2.73333 90.0572 5.24C92.2705 7.74667 93.3772 11.0133 93.3772 15.04C93.3772 17.4933 92.9238 19.7067 92.0172 21.68C91.1105 23.6267 89.7505 25.1733 87.9372 26.32C86.1505 27.44 83.9505 28 81.3372 28H69.9772L69.5372 26.76ZM80.2172 26.16C86.3772 26.16 89.4572 22.4267 89.4572 14.96C89.4572 12.9067 89.0972 11.0133 88.3772 9.28C87.6838 7.54666 86.6172 6.14667 85.1772 5.08C83.7372 4.01333 81.9638 3.48 79.8572 3.48C77.4838 3.48 76.2972 4.05333 76.2972 5.2V21.64C76.2972 23.3733 76.6572 24.56 77.3772 25.2C78.0972 25.84 79.0438 26.16 80.2172 26.16Z" fill="#5F5959"/>
<path d="M82.8778 34.555V37.305C82.5178 37.565 82.1328 37.76 81.7228 37.89C81.3162 38.0167 80.8695 38.08 80.3828 38.08C79.8062 38.08 79.2862 37.9917 78.8228 37.815C78.3595 37.635 77.9628 37.385 77.6328 37.065C77.3062 36.7417 77.0545 36.355 76.8778 35.905C76.7012 35.455 76.6128 34.96 76.6128 34.42C76.6128 33.8733 76.6978 33.375 76.8678 32.925C77.0412 32.475 77.2862 32.09 77.6028 31.77C77.9195 31.4467 78.3045 31.1967 78.7578 31.02C79.2112 30.8433 79.7178 30.755 80.2778 30.755C80.5612 30.755 80.8245 30.7767 81.0678 30.82C81.3112 30.86 81.5362 30.92 81.7428 31C81.9495 31.0767 82.1412 31.1717 82.3178 31.285C82.4945 31.395 82.6595 31.52 82.8128 31.66L82.5378 32.1C82.4945 32.1667 82.4378 32.21 82.3678 32.23C82.3012 32.2467 82.2262 32.23 82.1428 32.18C82.0628 32.1333 81.9712 32.0767 81.8678 32.01C81.7645 31.9433 81.6378 31.88 81.4878 31.82C81.3412 31.7567 81.1662 31.7033 80.9628 31.66C80.7628 31.6167 80.5245 31.595 80.2478 31.595C79.8445 31.595 79.4795 31.6617 79.1528 31.795C78.8262 31.925 78.5478 32.1133 78.3178 32.36C78.0878 32.6033 77.9112 32.9 77.7878 33.25C77.6645 33.5967 77.6028 33.9867 77.6028 34.42C77.6028 34.87 77.6662 35.2733 77.7928 35.63C77.9228 35.9833 78.1062 36.285 78.3428 36.535C78.5828 36.7817 78.8728 36.97 79.2128 37.1C79.5528 37.23 79.9345 37.295 80.3578 37.295C80.6912 37.295 80.9862 37.2583 81.2428 37.185C81.5028 37.1083 81.7562 37.0033 82.0028 36.87V35.295H80.8878C80.8245 35.295 80.7728 35.2767 80.7328 35.24C80.6962 35.2033 80.6778 35.1583 80.6778 35.105V34.555H82.8778ZM84.9194 33.95C85.0794 33.6033 85.2761 33.3333 85.5094 33.14C85.7427 32.9433 86.0277 32.845 86.3644 32.845C86.4711 32.845 86.5727 32.8567 86.6694 32.88C86.7694 32.9033 86.8577 32.94 86.9344 32.99L86.8694 33.655C86.8494 33.7383 86.7994 33.78 86.7194 33.78C86.6727 33.78 86.6044 33.77 86.5144 33.75C86.4244 33.73 86.3227 33.72 86.2094 33.72C86.0494 33.72 85.9061 33.7433 85.7794 33.79C85.6561 33.8367 85.5444 33.9067 85.4444 34C85.3477 34.09 85.2594 34.2033 85.1794 34.34C85.1027 34.4733 85.0327 34.6267 84.9694 34.8V38H84.0744V32.935H84.5844C84.6811 32.935 84.7477 32.9533 84.7844 32.99C84.8211 33.0267 84.8461 33.09 84.8594 33.18L84.9194 33.95ZM89.6469 32.855C90.0169 32.855 90.3502 32.9167 90.6469 33.04C90.9436 33.1633 91.1969 33.3383 91.4069 33.565C91.6169 33.7917 91.7769 34.0667 91.8869 34.39C92.0002 34.71 92.0569 35.0683 92.0569 35.465C92.0569 35.865 92.0002 36.225 91.8869 36.545C91.7769 36.865 91.6169 37.1383 91.4069 37.365C91.1969 37.5917 90.9436 37.7667 90.6469 37.89C90.3502 38.01 90.0169 38.07 89.6469 38.07C89.2736 38.07 88.9369 38.01 88.6369 37.89C88.3402 37.7667 88.0869 37.5917 87.8769 37.365C87.6669 37.1383 87.5052 36.865 87.3919 36.545C87.2819 36.225 87.2269 35.865 87.2269 35.465C87.2269 35.0683 87.2819 34.71 87.3919 34.39C87.5052 34.0667 87.6669 33.7917 87.8769 33.565C88.0869 33.3383 88.3402 33.1633 88.6369 33.04C88.9369 32.9167 89.2736 32.855 89.6469 32.855ZM89.6469 37.375C90.1469 37.375 90.5202 37.2083 90.7669 36.875C91.0136 36.5383 91.1369 36.07 91.1369 35.47C91.1369 34.8667 91.0136 34.3967 90.7669 34.06C90.5202 33.7233 90.1469 33.555 89.6469 33.555C89.3936 33.555 89.1719 33.5983 88.9819 33.685C88.7952 33.7717 88.6386 33.8967 88.5119 34.06C88.3886 34.2233 88.2952 34.425 88.2319 34.665C88.1719 34.9017 88.1419 35.17 88.1419 35.47C88.1419 36.07 88.2652 36.5383 88.5119 36.875C88.7619 37.2083 89.1402 37.375 89.6469 37.375ZM97.3507 32.935V38H96.8207C96.694 38 96.614 37.9383 96.5807 37.815L96.5107 37.27C96.2907 37.5133 96.044 37.71 95.7707 37.86C95.4974 38.0067 95.184 38.08 94.8307 38.08C94.554 38.08 94.309 38.035 94.0957 37.945C93.8857 37.8517 93.709 37.7217 93.5657 37.555C93.4224 37.3883 93.314 37.1867 93.2407 36.95C93.1707 36.7133 93.1357 36.4517 93.1357 36.165V32.935H94.0257V36.165C94.0257 36.5483 94.1124 36.845 94.2857 37.055C94.4624 37.265 94.7307 37.37 95.0907 37.37C95.354 37.37 95.599 37.3083 95.8257 37.185C96.0557 37.0583 96.2674 36.885 96.4607 36.665V32.935H97.3507ZM99.6569 36.78C99.8202 37 99.9986 37.155 100.192 37.245C100.385 37.335 100.602 37.38 100.842 37.38C101.315 37.38 101.679 37.2117 101.932 36.875C102.185 36.5383 102.312 36.0583 102.312 35.435C102.312 35.105 102.282 34.8217 102.222 34.585C102.165 34.3483 102.082 34.155 101.972 34.005C101.862 33.8517 101.727 33.74 101.567 33.67C101.407 33.6 101.225 33.565 101.022 33.565C100.732 33.565 100.477 33.6317 100.257 33.765C100.04 33.8983 99.8402 34.0867 99.6569 34.33V36.78ZM99.6119 33.72C99.8252 33.4567 100.072 33.245 100.352 33.085C100.632 32.925 100.952 32.845 101.312 32.845C101.605 32.845 101.87 32.9017 102.107 33.015C102.344 33.125 102.545 33.29 102.712 33.51C102.879 33.7267 103.007 33.9967 103.097 34.32C103.187 34.6433 103.232 35.015 103.232 35.435C103.232 35.8083 103.182 36.1567 103.082 36.48C102.982 36.8 102.837 37.0783 102.647 37.315C102.46 37.5483 102.23 37.7333 101.957 37.87C101.687 38.0033 101.382 38.07 101.042 38.07C100.732 38.07 100.465 38.0183 100.242 37.915C100.022 37.8083 99.8269 37.6617 99.6569 37.475V39.715H98.7619V32.935H99.2969C99.4236 32.935 99.5019 32.9967 99.5319 33.12L99.6119 33.72Z" fill="#5F5959"/>
<line x1="0.714355" y1="32.5" x2="28.1429" y2="32.5" stroke="#5F5959" stroke-width="3"/>
</svg>
