<svg width="111" height="43" viewBox="0 0 111 43" fill="none" xmlns="http://www.w3.org/2000/svg">
<path d="M0.4 26.76L1.24 26.56C2.22667 26.2667 2.93333 25.92 3.36 25.52C3.78667 25.0933 4.18667 24.32 4.56 23.2L10.24 6.8C10.5067 5.94667 10.64 5.36 10.64 5.04C10.64 4.58667 10.5067 4.24 10.24 4C10 3.73333 9.6 3.54667 9.04 3.44L8.2 3.24L8.64 2H15.6L22.92 22.96C23.32 24.1067 23.7333 24.96 24.16 25.52C24.6133 26.08 25.2933 26.7067 26.2 27.4L25.72 28H17.52L17.12 26.76L18 26.56C18.56 26.4267 18.96 26.24 19.2 26C19.4667 25.7333 19.6 25.3733 19.6 24.92C19.6 24.6533 19.5333 24.3467 19.4 24C19.2933 23.6267 19.2133 23.36 19.16 23.2L17.44 18.12H9.08L8.2 20.76C7.66667 22.4133 7.4 23.68 7.4 24.56C7.4 25.44 7.57333 26.1733 7.92 26.76L8.2 27.4L7.52 28H0.88L0.4 26.76ZM9.88 15.84H16.72L13.24 5.68L9.88 15.84ZM28.1469 27.4L28.6269 26.76C29.2402 25.96 29.6669 25.12 29.9069 24.24C30.1735 23.36 30.3069 22.1867 30.3069 20.72V9.24C30.3069 7.82667 30.1735 6.68 29.9069 5.8C29.6669 4.89333 29.2402 4.04 28.6269 3.24L28.1469 2.56L28.6269 2H39.3469C40.4402 2 41.3069 1.94667 41.9469 1.84C42.6135 1.70667 43.1469 1.50667 43.5469 1.24L44.1469 0.759998L44.7069 1.24V7.68L43.5469 8.12L43.2669 7.24C43.0269 6.33333 42.7735 5.66667 42.5069 5.24C42.2402 4.78667 41.8669 4.46667 41.3869 4.28C40.9069 4.09333 40.2269 4 39.3469 4H36.1469C35.2135 4 34.6002 4.18667 34.3069 4.56C34.0135 4.93333 33.8669 5.68 33.8669 6.8V14.12H38.1469C38.7335 14.12 39.2402 14 39.6669 13.76C40.1202 13.52 40.5469 13.08 40.9469 12.44L41.2669 12.04L42.0269 12.44V18.68L40.7469 19.08L40.5869 18.28C40.3469 17.4533 39.9469 16.8933 39.3869 16.6C38.8269 16.3067 37.8935 16.16 36.5869 16.16H33.8669V23.2C33.8669 24.32 34.0135 25.0933 34.3069 25.52C34.6002 25.92 35.2135 26.2667 36.1469 26.56L37.0269 26.76L36.5869 28H28.6269L28.1469 27.4ZM65.1916 28.52C65.0049 28.3333 64.7916 28.2 64.5516 28.12C64.3382 28.04 64.0449 28 63.6716 28H48.3916L47.9516 26.84L48.7516 26.64C49.6316 26.3733 50.2182 26.04 50.5116 25.64C50.8049 25.2133 50.9516 24.48 50.9516 23.44V9.24C50.9516 7.8 50.8316 6.64 50.5916 5.76C50.3516 4.88 49.9382 4.04 49.3516 3.24L48.8716 2.56L49.3516 2H60.4316C62.5382 2 63.8982 1.74667 64.5116 1.24L65.2316 0.759998L65.7516 1.24V7.68L64.5116 8.12L64.3116 7.24C63.9916 5.93333 63.5782 5.06667 63.0716 4.64C62.5649 4.21333 61.6849 4 60.4316 4H56.8716C55.9382 4 55.3116 4.18667 54.9916 4.56C54.6982 4.93333 54.5516 5.68 54.5516 6.8V13.76H59.1516C59.7649 13.76 60.2849 13.64 60.7116 13.4C61.1382 13.16 61.5782 12.7333 62.0316 12.12L62.3116 11.72L63.0316 12.12V18.32L61.8316 18.76L61.5916 17.84C61.3249 17.0133 60.9249 16.4667 60.3916 16.2C59.8582 15.9333 58.9249 15.8 57.5916 15.8H54.5516V23.2C54.5516 23.9733 54.6049 24.56 54.7116 24.96C54.8449 25.3333 55.0716 25.5867 55.3916 25.72C55.7116 25.8533 56.2049 25.92 56.8716 25.92H60.7516C61.6316 25.92 62.3116 25.84 62.7916 25.68C63.2716 25.4933 63.6449 25.1733 63.9116 24.72C64.2049 24.2667 64.4716 23.6 64.7116 22.72L64.9516 21.92L66.1516 22.28V28.52L65.4716 28.88L65.1916 28.52ZM69.8228 26.76L70.7028 26.56C71.4495 26.32 72.0095 26 72.3828 25.6C72.7828 25.1733 72.9828 24.5067 72.9828 23.6V5.28C72.9828 4.96 72.9161 4.74666 72.7828 4.64C72.6495 4.50666 72.4495 4.44 72.1828 4.44H70.1028L69.6628 3.08C70.8095 2.68 72.3028 2.32 74.1428 2C75.9828 1.65333 77.7561 1.48 79.4628 1.48C84.5028 1.48 88.1295 2.73333 90.3428 5.24C92.5561 7.74667 93.6628 11.0133 93.6628 15.04C93.6628 17.4933 93.2095 19.7067 92.3028 21.68C91.3961 23.6267 90.0361 25.1733 88.2228 26.32C86.4361 27.44 84.2361 28 81.6228 28H70.2628L69.8228 26.76ZM80.5028 26.16C86.6628 26.16 89.7428 22.4267 89.7428 14.96C89.7428 12.9067 89.3828 11.0133 88.6628 9.28C87.9695 7.54666 86.9028 6.14667 85.4628 5.08C84.0228 4.01333 82.2495 3.48 80.1428 3.48C77.7695 3.48 76.5828 4.05333 76.5828 5.2V21.64C76.5828 23.3733 76.9428 24.56 77.6628 25.2C78.3828 25.84 79.3295 26.16 80.5028 26.16Z" fill="#5F5959"/>
<path d="M73.735 37.055V39.805C73.375 40.065 72.99 40.26 72.58 40.39C72.1733 40.5167 71.7267 40.58 71.24 40.58C70.6633 40.58 70.1433 40.4917 69.68 40.315C69.2167 40.135 68.82 39.885 68.49 39.565C68.1633 39.2417 67.9117 38.855 67.735 38.405C67.5583 37.955 67.47 37.46 67.47 36.92C67.47 36.3733 67.555 35.875 67.725 35.425C67.8983 34.975 68.1433 34.59 68.46 34.27C68.7767 33.9467 69.1617 33.6967 69.615 33.52C70.0683 33.3433 70.575 33.255 71.135 33.255C71.4183 33.255 71.6817 33.2767 71.925 33.32C72.1683 33.36 72.3933 33.42 72.6 33.5C72.8067 33.5767 72.9983 33.6717 73.175 33.785C73.3517 33.895 73.5167 34.02 73.67 34.16L73.395 34.6C73.3517 34.6667 73.295 34.71 73.225 34.73C73.1583 34.7467 73.0833 34.73 73 34.68C72.92 34.6333 72.8283 34.5767 72.725 34.51C72.6217 34.4433 72.495 34.38 72.345 34.32C72.1983 34.2567 72.0233 34.2033 71.82 34.16C71.62 34.1167 71.3817 34.095 71.105 34.095C70.7017 34.095 70.3367 34.1617 70.01 34.295C69.6833 34.425 69.405 34.6133 69.175 34.86C68.945 35.1033 68.7683 35.4 68.645 35.75C68.5217 36.0967 68.46 36.4867 68.46 36.92C68.46 37.37 68.5233 37.7733 68.65 38.13C68.78 38.4833 68.9633 38.785 69.2 39.035C69.44 39.2817 69.73 39.47 70.07 39.6C70.41 39.73 70.7917 39.795 71.215 39.795C71.5483 39.795 71.8433 39.7583 72.1 39.685C72.36 39.6083 72.6133 39.5033 72.86 39.37V37.795H71.745C71.6817 37.795 71.63 37.7767 71.59 37.74C71.5533 37.7033 71.535 37.6583 71.535 37.605V37.055H73.735ZM75.7766 36.45C75.9366 36.1033 76.1332 35.8333 76.3666 35.64C76.5999 35.4433 76.8849 35.345 77.2216 35.345C77.3282 35.345 77.4299 35.3567 77.5266 35.38C77.6266 35.4033 77.7149 35.44 77.7916 35.49L77.7266 36.155C77.7066 36.2383 77.6566 36.28 77.5766 36.28C77.5299 36.28 77.4616 36.27 77.3716 36.25C77.2816 36.23 77.1799 36.22 77.0666 36.22C76.9066 36.22 76.7632 36.2433 76.6366 36.29C76.5132 36.3367 76.4016 36.4067 76.3016 36.5C76.2049 36.59 76.1166 36.7033 76.0366 36.84C75.9599 36.9733 75.8899 37.1267 75.8266 37.3V40.5H74.9316V35.435H75.4416C75.5382 35.435 75.6049 35.4533 75.6416 35.49C75.6782 35.5267 75.7032 35.59 75.7166 35.68L75.7766 36.45ZM80.5041 35.355C80.8741 35.355 81.2074 35.4167 81.5041 35.54C81.8007 35.6633 82.0541 35.8383 82.2641 36.065C82.4741 36.2917 82.6341 36.5667 82.7441 36.89C82.8574 37.21 82.9141 37.5683 82.9141 37.965C82.9141 38.365 82.8574 38.725 82.7441 39.045C82.6341 39.365 82.4741 39.6383 82.2641 39.865C82.0541 40.0917 81.8007 40.2667 81.5041 40.39C81.2074 40.51 80.8741 40.57 80.5041 40.57C80.1307 40.57 79.7941 40.51 79.4941 40.39C79.1974 40.2667 78.9441 40.0917 78.7341 39.865C78.5241 39.6383 78.3624 39.365 78.2491 39.045C78.1391 38.725 78.0841 38.365 78.0841 37.965C78.0841 37.5683 78.1391 37.21 78.2491 36.89C78.3624 36.5667 78.5241 36.2917 78.7341 36.065C78.9441 35.8383 79.1974 35.6633 79.4941 35.54C79.7941 35.4167 80.1307 35.355 80.5041 35.355ZM80.5041 39.875C81.0041 39.875 81.3774 39.7083 81.6241 39.375C81.8707 39.0383 81.9941 38.57 81.9941 37.97C81.9941 37.3667 81.8707 36.8967 81.6241 36.56C81.3774 36.2233 81.0041 36.055 80.5041 36.055C80.2507 36.055 80.0291 36.0983 79.8391 36.185C79.6524 36.2717 79.4957 36.3967 79.3691 36.56C79.2457 36.7233 79.1524 36.925 79.0891 37.165C79.0291 37.4017 78.9991 37.67 78.9991 37.97C78.9991 38.57 79.1224 39.0383 79.3691 39.375C79.6191 39.7083 79.9974 39.875 80.5041 39.875ZM88.2079 35.435V40.5H87.6779C87.5512 40.5 87.4712 40.4383 87.4379 40.315L87.3679 39.77C87.1479 40.0133 86.9012 40.21 86.6279 40.36C86.3546 40.5067 86.0412 40.58 85.6879 40.58C85.4112 40.58 85.1662 40.535 84.9529 40.445C84.7429 40.3517 84.5662 40.2217 84.4229 40.055C84.2796 39.8883 84.1712 39.6867 84.0979 39.45C84.0279 39.2133 83.9929 38.9517 83.9929 38.665V35.435H84.8829V38.665C84.8829 39.0483 84.9696 39.345 85.1429 39.555C85.3196 39.765 85.5879 39.87 85.9479 39.87C86.2112 39.87 86.4562 39.8083 86.6829 39.685C86.9129 39.5583 87.1246 39.385 87.3179 39.165V35.435H88.2079ZM90.5141 39.28C90.6774 39.5 90.8557 39.655 91.0491 39.745C91.2424 39.835 91.4591 39.88 91.6991 39.88C92.1724 39.88 92.5357 39.7117 92.7891 39.375C93.0424 39.0383 93.1691 38.5583 93.1691 37.935C93.1691 37.605 93.1391 37.3217 93.0791 37.085C93.0224 36.8483 92.9391 36.655 92.8291 36.505C92.7191 36.3517 92.5841 36.24 92.4241 36.17C92.2641 36.1 92.0824 36.065 91.8791 36.065C91.5891 36.065 91.3341 36.1317 91.1141 36.265C90.8974 36.3983 90.6974 36.5867 90.5141 36.83V39.28ZM90.4691 36.22C90.6824 35.9567 90.9291 35.745 91.2091 35.585C91.4891 35.425 91.8091 35.345 92.1691 35.345C92.4624 35.345 92.7274 35.4017 92.9641 35.515C93.2007 35.625 93.4024 35.79 93.5691 36.01C93.7357 36.2267 93.8641 36.4967 93.9541 36.82C94.0441 37.1433 94.0891 37.515 94.0891 37.935C94.0891 38.3083 94.0391 38.6567 93.9391 38.98C93.8391 39.3 93.6941 39.5783 93.5041 39.815C93.3174 40.0483 93.0874 40.2333 92.8141 40.37C92.5441 40.5033 92.2391 40.57 91.8991 40.57C91.5891 40.57 91.3224 40.5183 91.0991 40.415C90.8791 40.3083 90.6841 40.1617 90.5141 39.975V42.215H89.6191V35.435H90.1541C90.2807 35.435 90.3591 35.4967 90.3891 35.62L90.4691 36.22Z" fill="#5F5959"/>
<line x1="1" y1="35" x2="25" y2="35" stroke="#5F5959" stroke-width="3"/>
</svg>
